<svg width="32" height="32" viewBox="0 0 32 32" fill="none" xmlns="http://www.w3.org/2000/svg">
<g clip-path="url(#clip0_53_34191)">
<rect width="32" height="32" rx="16" fill="#F4F5F5"/>
<path d="M28.3104 26.2177C25.376 29.7505 20.9504 32.0001 16 32.0001C11.0496 32.0001 6.62397 29.7505 3.68958 26.2177C5.86238 21.5969 10.5568 18.4001 16 18.4001C21.4432 18.4001 26.1376 21.6001 28.3104 26.2177ZM16 16.8001C19.0912 16.8001 21.6 14.2913 21.6 11.2001C21.6 8.1089 19.0944 5.6001 16 5.6001C12.9056 5.6001 10.4 8.1089 10.4 11.2001C10.4 14.2913 12.9088 16.8001 16 16.8001Z" fill="#DADBDD"/>
</g>
<defs>
<clipPath id="clip0_53_34191">
<rect width="32" height="32" rx="16" fill="white"/>
</clipPath>
</defs>
</svg>
