<svg xmlns="http://www.w3.org/2000/svg" width="24" height="24" viewBox="0 0 24 24" fill="none">
  <path d="M18.9987 11.9997C18.7335 11.9997 18.4791 12.1051 18.2916 12.2926C18.1041 12.4801 17.9988 12.7345 17.9988 12.9997V20.9999C17.9985 21.2651 17.8931 21.5193 17.7056 21.7068C17.5182 21.8943 17.264 21.9997 16.9988 22H2.99979C2.73466 21.9997 2.48045 21.8943 2.29297 21.7068C2.10549 21.5193 2.00007 21.2651 1.99986 20.9999V6.99958C2.00007 6.73443 2.10549 6.48019 2.29297 6.29269C2.48045 6.1052 2.73466 5.99977 2.99979 5.99956H10.9992C11.2644 5.99956 11.5188 5.8942 11.7063 5.70666C11.8938 5.51912 11.9992 5.26476 11.9992 4.99954C11.9992 4.73431 11.8938 4.47995 11.7063 4.29241C11.5188 4.10487 11.2644 3.99951 10.9992 3.99951H2.99979C2.20452 4.00057 1.44213 4.31699 0.879788 4.87938C0.317447 5.44178 0.00105824 6.20424 0 6.99958L0 20.9999C0.00105824 21.7953 0.317447 22.5577 0.879788 23.1201C1.44213 23.6825 2.20452 23.9989 2.99979 24H16.9988C17.7941 23.9989 18.5565 23.6825 19.1188 23.1201C19.6812 22.5577 19.9976 21.7953 19.9986 20.9999V12.9997C19.9987 12.8684 19.9729 12.7383 19.9227 12.6169C19.8725 12.4955 19.7988 12.3853 19.706 12.2924C19.6131 12.1995 19.5028 12.1258 19.3815 12.0756C19.2601 12.0254 19.13 11.9996 18.9987 11.9997Z" fill="#3C69FC"/>
  <path d="M9.37541 11.0885C9.30595 11.1584 9.25841 11.2471 9.23862 11.3437L8.53147 14.8798C8.51702 14.9523 8.51887 15.0272 8.53687 15.099C8.55488 15.1708 8.58859 15.2377 8.63558 15.2949C8.68257 15.352 8.74166 15.3981 8.8086 15.4296C8.87553 15.4612 8.94863 15.4775 9.02263 15.4774C9.05541 15.4776 9.08812 15.4743 9.12023 15.4678L12.6552 14.7606C12.7522 14.7414 12.8413 14.6938 12.9112 14.6237L20.8234 6.71476L17.2885 3.17627L9.37541 11.0885Z" fill="#3C69FC"/>
  <path d="M23.2679 0.731422C22.7989 0.263063 22.1632 0 21.5004 0C20.8377 0 20.202 0.263063 19.733 0.731422L18.3491 2.11546L21.884 5.65074L23.2679 4.26671C23.7366 3.79787 23.9999 3.16204 23.9999 2.49907C23.9999 1.83609 23.7366 1.20026 23.2679 0.731422Z" fill="#3C69FC"/>
</svg>