<svg width="43" height="43" viewBox="0 0 43 43" fill="none" xmlns="http://www.w3.org/2000/svg">
<path d="M21.5 43C33.3741 43 43 33.3741 43 21.5C43 9.62588 33.3741 0 21.5 0C9.62588 0 0 9.62588 0 21.5C0 33.3741 9.62588 43 21.5 43Z" fill="#0D121A"/>
<g filter="url(#filter0_d_1296_12940)">
<path fill-rule="evenodd" clip-rule="evenodd" d="M14.1687 27.5398C14.2895 27.4182 14.4332 27.3218 14.5914 27.256C14.7496 27.1901 14.9193 27.1562 15.0907 27.1562C15.2621 27.1562 15.4317 27.1901 15.59 27.256C15.7482 27.3218 15.8919 27.4182 16.0127 27.5398C17.6093 29.1126 19.7605 29.9942 22.0017 29.9942C24.2429 29.9942 26.3941 29.1126 27.9907 27.5398C28.2352 27.2953 28.5669 27.1579 28.9127 27.1579C29.2585 27.1579 29.5902 27.2953 29.8347 27.5398C30.0792 27.7843 30.2166 28.116 30.2166 28.4618C30.2166 28.8076 30.0792 29.1392 29.8347 29.3838C27.7488 31.4453 24.9344 32.6015 22.0017 32.6015C19.069 32.6015 16.2545 31.4453 14.1687 29.3838C14.0471 29.263 13.9507 29.1193 13.8849 28.9611C13.819 28.8028 13.7852 28.6332 13.7852 28.4618C13.7852 28.2904 13.819 28.1207 13.8849 27.9625C13.9507 27.8043 14.0471 27.6606 14.1687 27.5398Z" fill="#0095FF"/>
<path fill-rule="evenodd" clip-rule="evenodd" d="M14.1703 13.7177C16.2561 11.6561 19.0706 10.5 22.0033 10.5C24.936 10.5 27.7504 11.6561 29.8363 13.7177C30.2837 14.1794 30.6874 14.6816 31.0423 15.2177C31.2341 15.5054 31.3039 15.8576 31.2361 16.1968C31.1683 16.536 30.9685 16.8343 30.6808 17.0262C30.393 17.2181 30.0408 17.2878 29.7016 17.22C29.3625 17.1522 29.0641 16.9524 28.8723 16.6647C28.6127 16.2707 28.3182 15.9009 27.9923 15.5597C26.3955 13.9871 24.2444 13.1057 22.0033 13.1057C19.7622 13.1057 17.611 13.9871 16.0143 15.5597C15.8933 15.6808 15.7497 15.7768 15.5916 15.8424C15.4336 15.908 15.2641 15.9418 15.093 15.9419C14.7473 15.9421 14.4158 15.805 14.1713 15.5607C13.9267 15.3164 13.7893 14.985 13.7891 14.6394C13.7889 14.2938 13.926 13.9622 14.1703 13.7177Z" fill="#0095FF"/>
<path fill-rule="evenodd" clip-rule="evenodd" d="M30.4809 11.7715C30.8257 11.7715 31.1563 11.9084 31.4001 12.1522C31.6439 12.396 31.7809 12.7267 31.7809 13.0715V16.2015C31.7809 16.5463 31.6439 16.8769 31.4001 17.1207C31.1563 17.3645 30.8257 17.5015 30.4809 17.5015H27.3509C27.005 17.5015 26.6734 17.3641 26.4288 17.1196C26.1843 16.875 26.0469 16.5433 26.0469 16.1975C26.0469 15.8516 26.1843 15.52 26.4288 15.2754C26.6734 15.0309 27.005 14.8935 27.3509 14.8935H29.1769V13.0715C29.1769 12.7267 29.3138 12.396 29.5576 12.1522C29.8014 11.9084 30.1321 11.7715 30.4769 11.7715H30.4809Z" fill="#0095FF"/>
<path fill-rule="evenodd" clip-rule="evenodd" d="M14.1691 13.7177C16.255 11.6561 19.0694 10.5 22.0021 10.5C24.9348 10.5 27.7493 11.6561 29.8351 13.7177C29.9562 13.8387 30.0523 13.9824 30.1178 14.1405C30.1834 14.2987 30.2171 14.4682 30.2172 14.6393C30.2172 14.8105 30.1835 14.98 30.1181 15.1382C30.0526 15.2964 29.9566 15.4401 29.8356 15.5612C29.7146 15.6823 29.5709 15.7783 29.4128 15.8439C29.2547 15.9094 29.0852 15.9432 28.914 15.9432C28.7428 15.9433 28.5733 15.9096 28.4151 15.8441C28.2569 15.7787 28.1132 15.6827 27.9921 15.5617C26.3954 13.9891 24.2442 13.1077 22.0031 13.1077C19.762 13.1077 17.6108 13.9891 16.0141 15.5617C15.1909 16.3621 14.5443 17.3258 14.1158 18.391C13.6873 19.4562 13.4865 20.5992 13.5261 21.7467C13.5434 22.0915 13.4229 22.429 13.1913 22.685C12.9597 22.941 12.6359 23.0944 12.2911 23.1117C11.9463 23.1289 11.6088 23.0085 11.3528 22.7769C11.0969 22.5453 10.9434 22.2215 10.9261 21.8767C10.8675 20.3657 11.1257 18.8592 11.6843 17.454C12.2428 16.0488 13.0892 14.7761 14.1691 13.7177Z" fill="#0095FF"/>
<path fill-rule="evenodd" clip-rule="evenodd" d="M31.8521 20.5076C32.0233 20.5161 32.1912 20.5583 32.3461 20.6319C32.5009 20.7055 32.6397 20.8089 32.7544 20.9364C32.8691 21.0638 32.9574 21.2126 33.0144 21.3744C33.0713 21.5361 33.0957 21.7075 33.0861 21.8786C32.9815 24.6982 31.8236 27.3761 29.8411 29.3836C27.7553 31.4452 24.9408 32.6013 22.0081 32.6013C19.0754 32.6013 16.2609 31.4452 14.1751 29.3836C13.7277 28.9219 13.324 28.4198 12.9691 27.8836C12.7772 27.5959 12.7075 27.2437 12.7753 26.9045C12.8431 26.5654 13.0428 26.267 13.3306 26.0751C13.6184 25.8832 13.9706 25.8135 14.3097 25.8813C14.6489 25.9491 14.9472 26.1489 15.1391 26.4366C15.3989 26.8289 15.6934 27.1971 16.0191 27.5366C17.6157 29.1094 19.7669 29.9911 22.0081 29.9911C24.2493 29.9911 26.4005 29.1094 27.9971 27.5366C29.5259 25.9846 30.4145 23.914 30.4861 21.7366C30.5045 21.3926 30.6586 21.0699 30.9148 20.8394C31.1709 20.609 31.508 20.4897 31.8521 20.5076Z" fill="#0095FF"/>
<path fill-rule="evenodd" clip-rule="evenodd" d="M12.2188 26.8918C12.2188 26.547 12.3557 26.2164 12.5995 25.9726C12.8433 25.7288 13.174 25.5918 13.5188 25.5918H16.6488C16.9946 25.5918 17.3263 25.7292 17.5708 25.9737C17.8154 26.2183 17.9528 26.55 17.9528 26.8958C17.9528 27.2416 17.8154 27.5733 17.5708 27.8179C17.3263 28.0624 16.9946 28.1998 16.6488 28.1998H14.8307V30.0258C14.8307 30.197 14.797 30.3666 14.7315 30.5248C14.666 30.683 14.5699 30.8268 14.4488 30.9479C14.3277 31.069 14.184 31.165 14.0258 31.2305C13.8676 31.2961 13.698 31.3298 13.5268 31.3298C13.3555 31.3298 13.1859 31.2961 13.0277 31.2305C12.8695 31.165 12.7258 31.069 12.6047 30.9479C12.4836 30.8268 12.3875 30.683 12.322 30.5248C12.2565 30.3666 12.2228 30.197 12.2228 30.0258L12.2188 26.8918Z" fill="#0095FF"/>
</g>
<defs>
<filter id="filter0_d_1296_12940" x="6.91797" y="10.5" width="30.1719" height="30.1016" filterUnits="userSpaceOnUse" color-interpolation-filters="sRGB">
<feFlood flood-opacity="0" result="BackgroundImageFix"/>
<feColorMatrix in="SourceAlpha" type="matrix" values="0 0 0 0 0 0 0 0 0 0 0 0 0 0 0 0 0 0 127 0" result="hardAlpha"/>
<feOffset dy="4"/>
<feGaussianBlur stdDeviation="2"/>
<feComposite in2="hardAlpha" operator="out"/>
<feColorMatrix type="matrix" values="0 0 0 0 0 0 0 0 0 0 0 0 0 0 0 0 0 0 0.25 0"/>
<feBlend mode="normal" in2="BackgroundImageFix" result="effect1_dropShadow_1296_12940"/>
<feBlend mode="normal" in="SourceGraphic" in2="effect1_dropShadow_1296_12940" result="shape"/>
</filter>
</defs>
</svg>
