<svg width="18" height="18" viewBox="0 0 18 18" fill="none" xmlns="http://www.w3.org/2000/svg">
<g id="icon-18">
<g id="Layer 48">
<path id="Vector" d="M11.9107 8.84109L6.37231 5.04364C6.33839 5.01997 6.29756 5.00524 6.25455 5.00116C6.21153 4.99708 6.16809 5.00381 6.12923 5.02058C6.0905 5.03749 6.05789 5.06358 6.03506 5.09592C6.01224 5.12826 6.00009 5.16558 6 5.20367L6 12.7986C6.00071 12.8364 6.01327 12.8733 6.03629 12.9052C6.05932 12.9371 6.09191 12.9627 6.13046 12.9793C6.16901 12.9959 6.21201 13.0027 6.25469 12.999C6.29738 12.9954 6.33809 12.9814 6.37231 12.9586L11.9107 9.16116C11.9385 9.14228 11.961 9.11804 11.9765 9.09029C11.992 9.06255 12 9.03204 12 9.00113C12 8.97021 11.992 8.9397 11.9765 8.91196C11.961 8.88421 11.9385 8.85997 11.9107 8.84109Z" fill="white"/>
</g>
</g>
</svg>
